# xmcd
#
# Track frame offsets:
#	150
#	17140
#	31474
#	47374
#	62805
#	79385
#	95514
#	111925
#	128635
#
# Disc length: 1897 seconds
#
# Revision: 0
# Processed by: cddbd v1.5.2PL0 Copyright (c) Steve Scherf et al.
# Submitted via: EasyCDDAExtractor 16.0.4.1
#
DISCID=71076709
DTITLE=Milomir Miljanić Miljan - Idem Tamo Đe Me Vole
DYEAR=2009
DGENRE=Country
TTITLE0=Đe Nestade Onaj Soko
TTITLE1=Idem Tamo Đe Me Vole
TTITLE2=Odsjekla Je Duge Kose
TTITLE3=Đe U Ljeto Gaziš Snijeg
TTITLE4=Eh, Da Mi Je Pamet Ova
TTITLE5=Ljuti Krajišnik
TTITLE6=Sarajevo
TTITLE7=Samo Srbin Slavu Slavi
TTITLE8=Anđelija
EXTD=
EXTT0=
EXTT1=
EXTT2=
EXTT3=
EXTT4=
EXTT5=
EXTT6=
EXTT7=
EXTT8=
PLAYORDER=
